<?xml version="1.0" standalone="no"?>
<!DOCTYPE svg PUBLIC "-//W3C//DTD SVG 20010904//EN"
 "http://www.w3.org/TR/2001/REC-SVG-20010904/DTD/svg10.dtd">
<svg version="1.0" xmlns="http://www.w3.org/2000/svg"
 width="512.000000pt" height="512.000000pt" viewBox="0 0 512.000000 512.000000"
 preserveAspectRatio="xMidYMid meet">

<g transform="translate(0.000000,512.000000) scale(0.100000,-0.100000)"
fill="#000000" stroke="none">
<path d="M2515 4670 c-164 -15 -458 -74 -601 -121 -215 -70 -503 -258 -691
-450 -182 -186 -282 -322 -395 -539 -85 -162 -131 -300 -169 -513 -30 -165
-31 -179 -26 -367 6 -196 19 -297 67 -497 17 -71 34 -113 76 -182 29 -50 70
-125 90 -167 20 -43 46 -94 59 -113 12 -20 49 -81 81 -136 47 -80 82 -123 174
-214 222 -220 278 -264 450 -347 234 -114 366 -164 553 -209 290 -69 689 -74
952 -13 189 44 478 173 590 263 39 31 86 66 105 77 101 61 253 186 485 396 38
35 185 244 286 406 74 120 130 300 150 483 19 182 17 482 -5 598 -40 212 -66
297 -140 455 -117 250 -238 424 -426 608 -172 170 -307 265 -532 375 -111 55
-352 137 -483 166 -174 38 -475 57 -650 41z m122 -180 c46 -94 49 -93 60 15 7
61 11 70 29 73 16 2 30 -8 50 -37 34 -48 42 -50 46 -13 2 21 9 28 31 30 l28 3
-7 -80 c-4 -45 -4 -81 -1 -81 3 0 26 36 51 80 38 65 51 80 70 80 26 0 32 -12
57 -123 7 -32 16 -60 20 -63 11 -7 26 25 34 71 13 84 15 86 38 83 20 -3 22 -8
20 -61 -1 -42 -9 -71 -28 -103 -14 -24 -28 -44 -31 -44 -3 0 -17 9 -31 20 -14
11 -33 20 -42 20 -9 0 -24 9 -34 20 -18 21 -47 26 -63 10 -5 -5 -35 -6 -66 -3
-53 5 -59 9 -85 47 l-28 41 -5 -40 -5 -40 -60 2 c-33 1 -75 5 -93 9 -19 4 -38
2 -46 -5 -8 -7 -39 -14 -70 -17 -47 -5 -56 -3 -56 10 0 23 -17 20 -31 -5 l-11
-21 -24 23 -24 22 0 -25 c0 -26 -26 -46 -41 -31 -10 10 -39 165 -33 175 13 21
53 6 74 -27 12 -19 25 -35 30 -35 4 0 13 20 20 45 12 45 42 67 61 48 5 -5 14
-38 20 -73 15 -96 24 -103 43 -34 10 32 20 68 23 79 21 74 59 59 110 -45z
m667 -4 c28 -11 33 -19 29 -35 -4 -17 -11 -20 -27 -15 -33 10 -38 10 -43 -2
-2 -6 10 -14 26 -17 24 -5 28 -10 24 -27 -5 -19 -11 -21 -39 -15 -43 8 -46
-12 -4 -26 32 -12 43 -49 14 -49 -22 0 -96 21 -110 32 -8 6 -4 33 15 94 25 83
27 85 53 80 15 -3 43 -12 62 -20z m-1205 -15 c10 -10 38 -44 61 -75 49 -65 44
-81 -22 -70 -31 5 -40 2 -59 -20 -46 -53 -63 -27 -53 83 9 101 30 125 73 82z
m1331 -42 c6 -10 10 -31 10 -48 0 -37 2 -38 44 -6 37 28 49 31 65 12 8 -10 3
-32 -20 -88 -17 -41 -34 -77 -38 -81 -4 -4 -17 -1 -29 8 -18 12 -20 19 -12 35
13 23 -2 26 -20 4 -21 -25 -40 -18 -40 15 0 17 -4 30 -10 30 -5 0 -10 -6 -10
-14 0 -8 -4 -17 -9 -20 -14 -9 -41 4 -41 20 0 17 48 134 62 151 12 15 36 6 48
-18z m-1473 -29 c7 -14 13 -53 13 -88 0 -68 -15 -86 -51 -64 -25 16 -27 15
-31 -9 -2 -12 -10 -27 -20 -32 -31 -20 -144 93 -131 131 8 22 38 12 58 -20 20
-32 41 -36 38 -8 -1 8 -3 28 -5 45 -5 44 24 45 52 1 12 -20 26 -36 31 -36 12
0 11 32 -1 65 -6 15 -7 31 -4 36 10 17 38 5 51 -21z m1698 -63 c26 -15 41 -31
43 -46 3 -20 1 -22 -15 -16 -10 4 -29 10 -43 12 l-25 4 29 -24 c32 -28 31 -65
-2 -52 -36 15 -52 17 -52 6 0 -6 11 -16 24 -23 30 -13 41 -37 21 -45 -16 -6
-64 11 -103 35 l-22 14 42 79 c24 44 48 79 53 79 6 0 28 -11 50 -23z m-1965
-52 c0 -17 9 -29 30 -40 16 -8 34 -24 40 -35 15 -28 -8 -74 -39 -78 -22 -3
-23 -1 -18 26 5 27 2 33 -28 51 -39 23 -47 58 -19 85 22 23 34 20 34 -9z
m2100 -34 c5 -11 10 -39 10 -63 l1 -43 24 28 c13 15 31 27 40 27 27 0 16 -43
-26 -103 -57 -80 -89 -76 -89 12 0 52 -10 57 -40 21 -23 -28 -27 -29 -45 -16
-19 13 -18 16 28 85 49 74 77 89 97 52z m-2155 -61 c25 -39 45 -76 45 -84 0
-16 -30 -30 -41 -19 -22 24 -89 128 -89 139 0 10 24 32 38 34 1 0 22 -32 47
-70z m-117 -18 c2 -14 16 -28 38 -37 63 -26 65 -82 3 -120 -20 -13 -40 -29
-44 -35 -3 -5 -19 -10 -35 -10 -27 0 -40 -15 -40 -46 0 -19 -65 -84 -83 -84
-8 0 -20 7 -27 15 -19 22 -39 18 -52 -11 -11 -23 -9 -28 12 -44 25 -19 25 -19
5 -39 -20 -20 -20 -19 -82 39 -66 61 -71 71 -50 89 10 8 19 7 33 -4 28 -21 43
-18 56 11 10 22 9 27 -5 35 -21 12 -22 33 -2 49 12 10 25 3 72 -39 84 -75 88
-71 43 34 -16 39 -30 78 -30 87 0 33 42 31 120 -6 l73 -35 14 26 c15 30 13 34
-30 48 -26 8 -33 16 -35 43 -5 54 39 86 46 34z m2498 -97 c7 -18 -94 -137
-114 -133 -8 2 -20 10 -25 20 -9 13 -1 27 43 72 54 56 85 69 96 41z m64 -50
c9 -10 10 -31 6 -67 l-7 -53 24 24 c28 25 60 25 65 -1 4 -18 -104 -127 -126
-128 -18 0 -29 39 -24 88 5 48 -8 54 -32 17 -14 -21 -20 -24 -36 -15 -30 16
-25 29 37 92 61 61 73 67 93 43z m169 -182 c32 -39 40 -73 18 -73 -8 0 -22 9
-32 20 -10 11 -22 20 -27 20 -13 0 -9 -27 6 -40 8 -6 12 -18 9 -26 -6 -16 -43
-20 -43 -4 0 5 -9 14 -19 20 -15 7 -23 6 -35 -5 -20 -20 -42 -19 -51 3 -5 13
8 30 52 69 32 29 66 53 75 53 9 0 30 -17 47 -37z m-3071 -85 c86 -24 101 -41
55 -63 -39 -20 -53 -37 -53 -66 0 -15 -5 -31 -10 -34 -6 -4 -17 -22 -25 -41
-13 -31 -17 -34 -36 -24 -24 13 -38 5 -21 -12 19 -19 14 -37 -14 -44 -18 -5
-22 -10 -15 -17 14 -14 14 -44 1 -52 -5 -3 -44 13 -85 36 -54 29 -75 46 -71
56 3 8 6 19 6 25 0 7 19 9 50 6 56 -6 59 -1 29 48 -23 37 -18 74 9 74 9 0 42
-16 72 -35 50 -33 80 -43 80 -29 0 3 -13 23 -29 43 -15 20 -39 55 -52 77 -20
36 -21 44 -10 58 17 21 21 21 119 -6z m3173 -59 c39 -42 39 -87 0 -131 -51
-57 -140 -36 -160 38 -13 47 0 79 41 104 48 29 85 26 119 -11z m113 -193 c31
-66 10 -116 -49 -116 -19 0 -39 -8 -50 -20 -22 -24 -41 -26 -49 -4 -9 24 -8
29 14 54 20 23 17 51 -3 31 -18 -18 -45 -13 -52 10 -9 26 -8 27 78 65 79 35
85 34 111 -20z m66 -158 c0 -4 -13 -23 -30 -41 -16 -19 -30 -37 -30 -41 0 -3
18 -6 39 -6 40 0 75 -22 68 -43 -4 -14 -21 -23 -89 -48 -65 -23 -75 -39 -23
-39 49 0 139 -21 147 -34 4 -6 8 -17 8 -23 0 -17 -138 -113 -163 -113 -17 0
-19 5 -12 46 5 37 3 50 -11 66 -10 11 -24 41 -31 66 -16 61 -16 62 2 62 8 0
15 5 15 10 0 6 -9 10 -19 10 -30 0 -33 15 -9 45 l22 28 -27 -7 c-20 -5 -29 -2
-37 15 -7 11 -9 24 -5 27 3 3 41 18 83 32 68 24 78 25 90 11 6 -8 12 -18 12
-23z m-3598 -4 c40 -15 76 -31 80 -37 13 -21 -13 -47 -57 -59 -25 -7 -45 -15
-45 -19 0 -4 16 -13 35 -19 30 -10 35 -15 29 -33 -4 -12 -11 -37 -15 -55 -4
-19 -17 -41 -28 -49 -21 -14 -29 -57 -12 -67 13 -8 1 -46 -13 -46 -7 0 -44 21
-82 48 -54 37 -69 53 -69 72 0 21 7 27 45 37 25 6 67 12 93 12 66 1 57 18 -28
50 -38 15 -70 32 -73 39 -7 21 18 42 64 53 52 13 55 23 14 38 -28 9 -40 37
-23 54 8 9 2 11 85 -19z m-157 -398 c15 -17 37 -25 78 -30 55 -7 57 -9 57 -36
l0 -29 -64 6 c-53 5 -68 3 -81 -11 -29 -29 -40 -14 -36 50 5 83 10 89 46 50z
m3869 -32 c10 -73 8 -84 -13 -84 -10 0 -22 7 -25 16 -5 14 -17 16 -75 10 -64
-7 -70 -6 -76 13 -9 29 1 41 34 41 54 0 94 13 98 32 3 11 14 18 28 18 19 0 23
-7 29 -46z m-1559 -109 c156 -14 436 -63 575 -102 178 -48 431 -149 555 -221
114 -65 116 -69 90 -173 -33 -133 -127 -344 -198 -449 -263 -388 -691 -654
-1157 -721 -110 -16 -402 -16 -505 0 -479 75 -913 350 -1161 738 -82 128 -182
368 -200 481 l-6 38 119 61 c558 288 1209 408 1888 348z m-2185 -25 c0 -11 -5
-29 -12 -40 -9 -15 -10 -27 -1 -52 7 -18 15 -50 19 -70 5 -34 3 -41 -25 -67
-38 -36 -39 -41 -2 -41 20 0 30 -6 34 -20 8 -29 -10 -37 -100 -43 l-83 -6 0
29 c0 27 3 30 30 30 42 0 39 26 -5 44 -24 10 -35 22 -35 35 0 25 18 26 63 5
33 -16 36 -16 66 7 38 28 30 39 -46 64 -117 37 -122 78 -15 118 85 32 112 34
112 7z m3748 -7 c-3 -28 -3 -28 -90 -31 l-88 -3 0 31 0 30 91 0 90 0 -3 -27z
m-15 -63 c14 0 18 -6 15 -27 -2 -22 -9 -29 -30 -31 -36 -4 -35 -18 2 -37 21
-11 30 -23 30 -40 0 -30 -11 -31 -60 -4 l-37 21 -39 -20 -39 -20 30 -17 c139
-77 136 -75 133 -102 -2 -21 -11 -28 -47 -39 -25 -7 -69 -16 -98 -20 -48 -6
-53 -5 -53 14 0 11 7 25 15 32 12 10 14 28 9 91 l-7 78 33 29 c20 19 28 32 21
36 -6 4 -15 5 -20 2 -13 -8 -34 21 -28 38 6 16 62 26 117 20 19 -2 43 -4 53
-4z m-3705 -307 c2 -16 -3 -24 -20 -28 -85 -19 -116 -25 -141 -25 -25 0 -28 3
-25 27 3 26 7 29 73 39 94 15 109 14 113 -13z m36 -323 c19 0 19 -1 -2 -16
-14 -10 -21 -22 -18 -32 5 -14 -2 -17 -38 -18 -37 -1 -43 2 -38 18 2 10 -1 25
-8 33 -10 12 -10 15 3 15 8 0 20 7 27 15 11 13 15 13 33 0 12 -8 30 -15 41
-15z m3511 10 c3 -5 18 -10 33 -10 25 -1 25 -2 10 -14 -10 -7 -18 -26 -18 -41
0 -23 -2 -26 -15 -15 -8 7 -24 10 -35 7 -14 -3 -20 0 -20 11 0 8 -7 24 -17 34
-15 17 -15 18 10 18 15 0 27 5 27 10 0 6 4 10 9 10 6 0 13 -4 16 -10z m-3365
-130 c9 -17 4 -23 -50 -50 -49 -25 -60 -35 -60 -55 0 -34 37 -33 96 1 45 26
74 26 74 0 0 -19 -111 -86 -142 -86 -29 0 -51 22 -71 70 -21 48 -7 71 66 108
75 37 74 37 87 12z m3300 -49 c41 -8 46 -30 11 -47 -32 -16 -41 -32 -41 -76 0
-20 -5 -40 -10 -43 -6 -4 -36 21 -68 55 -69 75 -75 85 -67 111 6 19 12 20 74
14 36 -4 82 -10 101 -14z m-3203 -107 c3 -9 -2 -41 -11 -71 -10 -30 -15 -57
-12 -60 3 -3 18 4 34 16 35 25 45 26 62 7 9 -12 0 -24 -57 -65 -102 -76 -131
-65 -99 36 10 30 15 57 12 60 -3 3 -18 -4 -34 -16 -35 -25 -45 -26 -61 -7 -12
14 -6 20 94 93 36 26 63 29 72 7z m3065 -36 c34 -24 64 -51 66 -61 7 -36 -28
-29 -98 19 -66 45 -79 61 -63 77 13 14 32 6 95 -35z m-112 -47 c0 -21 19 -31
60 -31 37 0 52 -21 48 -66 -4 -50 -25 -55 -43 -10 -13 31 -20 36 -48 36 -42 0
-57 15 -57 57 0 26 4 33 20 33 13 0 20 -7 20 -19z m-2829 -83 c7 -13 18 -27
25 -31 21 -12 17 -36 -11 -69 -54 -63 -17 -92 50 -38 l37 29 69 -62 c38 -34
69 -65 69 -69 0 -19 -25 -18 -52 2 -41 30 -60 12 -23 -23 28 -25 27 -47 -2
-47 -9 0 -25 8 -35 17 -13 12 -21 14 -30 5 -8 -8 -3 -17 16 -35 28 -26 35 -57
13 -57 -21 0 -97 60 -97 77 0 9 15 34 33 57 51 63 51 65 -14 39 -73 -29 -113
-28 -117 5 -5 31 24 115 51 148 27 35 8 24 -61 -35 -43 -36 -57 -43 -70 -34
-9 5 -17 16 -17 22 0 14 124 120 142 120 7 1 18 -9 24 -21z m2795 -39 c97 -39
108 -47 93 -65 -6 -8 -19 -14 -28 -14 -26 -1 -55 -28 -56 -53 -2 -29 -13 -47
-28 -47 -10 0 -97 157 -97 174 0 5 30 36 34 36 2 0 39 -14 82 -31z m-171 -195
c44 -26 82 -48 84 -50 11 -9 -25 -34 -49 -34 -29 0 -56 -24 -62 -55 -2 -12
-11 -20 -23 -20 -28 0 -86 165 -66 189 19 23 28 21 116 -30z m-2298 -54 c48
-31 49 -96 1 -121 -29 -15 -38 -28 -38 -56 0 -13 -6 -23 -14 -23 -23 0 -36 25
-30 57 8 41 -13 54 -36 23 -19 -25 -50 -22 -50 5 0 16 76 135 95 147 5 4 19 1
30 -6 11 -7 30 -19 42 -26z m2140 -11 c7 -13 13 -43 13 -67 0 -24 5 -53 11
-64 9 -18 8 -24 -7 -35 -15 -11 -21 -10 -43 10 -24 22 -72 47 -89 47 -5 0 -8
-16 -9 -35 -1 -27 5 -40 23 -52 13 -8 24 -21 24 -28 0 -21 -35 -23 -59 -4 -41
34 -64 21 -40 -22 11 -22 -3 -49 -25 -49 -13 0 -86 138 -86 163 0 20 68 57
104 57 16 0 27 7 31 20 8 26 29 25 65 -2 24 -17 33 -19 42 -10 10 10 10 19 0
44 -20 55 19 78 45 27z m-2011 -83 c18 -14 18 -15 -8 -25 -25 -9 -28 -16 -28
-55 0 -48 -24 -76 -65 -76 -46 0 -61 47 -17 52 24 3 28 8 33 51 7 64 41 85 85
53z m78 -34 c3 -5 37 -21 75 -37 52 -21 71 -33 71 -47 0 -15 -5 -17 -25 -12
-22 5 -27 1 -40 -30 -8 -20 -21 -51 -29 -70 -11 -28 -19 -33 -35 -29 -27 7
-26 25 3 93 26 59 25 64 -4 80 -18 9 -23 3 -52 -55 -26 -52 -37 -65 -53 -63
-32 5 -28 30 15 106 38 66 61 85 74 64z m1633 -117 c36 -36 63 -71 60 -78 -2
-7 -22 -12 -51 -12 -36 0 -51 -5 -61 -20 -23 -32 -35 -45 -44 -45 -17 0 -30
198 -14 213 18 19 51 1 110 -58z m-1383 9 c10 -10 16 -33 16 -63 0 -27 3 -69
6 -95 6 -42 5 -46 -14 -46 -11 0 -29 12 -39 26 -20 27 -48 33 -90 19 -41 -13
-38 20 7 81 72 97 86 106 114 78z m1198 -50 c-3 -45 0 -53 27 -77 36 -32 38
-43 10 -52 -15 -5 -29 1 -53 24 -18 17 -35 31 -39 31 -4 0 -6 -19 -5 -42 3
-37 0 -43 -18 -46 -18 -3 -24 7 -44 77 -12 44 -20 87 -17 96 10 25 32 17 44
-16 18 -46 44 -30 58 34 4 20 11 27 23 25 14 -3 16 -13 14 -54z m-1035 0 c4
-10 -1 -20 -11 -26 -14 -8 -16 -19 -11 -63 6 -47 5 -54 -16 -69 -31 -21 -65
-20 -74 1 -3 10 -2 19 3 21 33 11 42 27 32 62 -12 43 -5 69 23 80 33 13 47 12
54 -6z m863 -84 c28 -44 48 -85 45 -90 -8 -13 -42 -13 -50 0 -12 20 -62 11
-79 -15 -9 -14 -26 -25 -37 -25 -18 0 -20 4 -15 33 3 17 8 57 12 87 9 70 19
90 48 90 19 0 35 -17 76 -80z m-701 11 c9 -25 21 -44 26 -43 6 1 21 19 35 39
14 21 36 39 48 41 20 3 22 0 21 -50 0 -29 -4 -73 -7 -98 -6 -40 -10 -45 -32
-45 -23 0 -25 3 -22 38 4 47 -9 48 -31 1 -14 -28 -20 -34 -31 -25 -8 6 -17 26
-20 44 -5 25 -9 29 -16 17 -5 -8 -10 -25 -10 -37 0 -16 -6 -23 -19 -23 -31 0
-34 15 -20 106 13 81 14 85 37 82 19 -2 28 -14 41 -47z m526 27 c2 -13 6 -57
7 -98 3 -70 2 -75 -19 -78 -18 -3 -22 3 -28 37 -6 34 -11 41 -30 41 -43 0 -55
-10 -55 -46 0 -33 -22 -56 -38 -40 -4 4 -10 44 -13 89 -5 61 -3 86 6 96 18 18
31 8 39 -29 5 -29 8 -31 43 -28 32 3 38 7 41 28 5 39 10 50 26 50 9 0 18 -10
21 -22z m-267 3 c7 -4 26 -48 43 -96 33 -101 28 -123 -21 -87 -34 25 -75 29
-84 7 -5 -15 -56 -22 -56 -7 0 9 55 143 70 171 11 22 27 26 48 12z"/>
<path d="M2567 4493 c-3 -5 -2 -15 2 -22 5 -7 11 -9 14 -4 3 5 2 15 -2 22 -5
7 -11 9 -14 4z"/>
<path d="M2975 4470 c-3 -5 -1 -10 4 -10 6 0 11 5 11 10 0 6 -2 10 -4 10 -3 0
-8 -4 -11 -10z"/>
<path d="M2080 4390 c0 -5 5 -10 10 -10 6 0 10 5 10 10 0 6 -4 10 -10 10 -5 0
-10 -4 -10 -10z"/>
<path d="M1406 4011 c-4 -5 -2 -12 3 -15 5 -4 12 -2 15 3 4 5 2 12 -3 15 -5 4
-12 2 -15 -3z"/>
<path d="M1130 3710 c0 -5 5 -10 10 -10 6 0 10 5 10 10 0 6 -4 10 -10 10 -5 0
-10 -4 -10 -10z"/>
<path d="M4252 3658 c-30 -30 0 -75 42 -64 29 7 43 41 26 61 -15 18 -52 19
-68 3z"/>
<path d="M4393 3474 c-9 -23 11 -38 26 -20 13 16 7 36 -10 36 -5 0 -12 -7 -16
-16z"/>
<path d="M4500 3060 c0 -5 4 -10 9 -10 6 0 13 5 16 10 3 6 -1 10 -9 10 -9 0
-16 -4 -16 -10z"/>
<path d="M845 3060 c3 -5 8 -10 11 -10 2 0 4 5 4 10 0 6 -5 10 -11 10 -5 0 -7
-4 -4 -10z"/>
<path d="M2467 2561 c-98 -5 -130 -9 -137 -21 -5 -8 -10 -57 -10 -109 l0 -94
75 6 c61 6 89 14 148 45 40 22 79 41 85 43 7 2 15 33 19 72 l6 67 -29 -2 c-16
-1 -87 -4 -157 -7z"/>
<path d="M2807 2543 c-2 -4 -7 -29 -11 -54 l-7 -46 48 -9 c38 -7 55 -6 80 6
18 8 33 20 33 27 0 18 16 24 45 17 29 -7 34 -34 6 -34 -14 0 -18 -5 -14 -20 4
-15 0 -20 -16 -20 -11 0 -21 -2 -21 -6 0 -3 29 -34 63 -69 l64 -63 23 99 c13
54 21 102 17 105 -3 3 -66 19 -139 34 -73 16 -141 32 -150 35 -9 4 -18 3 -21
-2z"/>
<path d="M2118 2490 c-27 -17 -52 -30 -56 -30 -5 0 -28 -13 -50 -30 -23 -16
-49 -30 -58 -30 -15 0 -16 -12 -12 -100 5 -101 -4 -134 -17 -60 -4 22 -11 42
-16 45 -11 7 0 -52 16 -85 17 -35 27 -80 18 -80 -5 0 -19 36 -33 79 -16 50
-27 74 -31 63 -7 -18 8 -94 20 -102 4 -3 13 -32 20 -65 7 -33 18 -73 23 -88 6
-15 9 -56 6 -90 -7 -86 11 -162 37 -162 19 0 20 6 17 100 -3 89 -10 153 -28
250 -5 28 0 33 53 67 32 21 84 58 116 83 l58 46 -3 107 c-3 124 -7 128 -80 82z"/>
<path d="M3251 2388 c-20 -56 -43 -170 -35 -178 62 -57 211 -170 222 -168 13
3 82 182 82 213 0 11 -202 138 -237 149 -18 6 -25 3 -32 -16z"/>
<path d="M3531 2046 c-22 -62 -41 -127 -41 -144 0 -42 -9 -62 -29 -62 -9 0
-56 -14 -106 -30 -82 -27 -84 -31 -7 -14 17 4 24 3 17 -3 -9 -9 -83 -31 -275
-84 -48 -13 -66 -15 -72 -6 -11 18 -14 10 -42 -109 -26 -110 -33 -179 -18
-187 4 -3 95 24 202 59 107 35 200 64 206 64 20 0 42 34 70 105 31 79 44 99
44 67 0 -15 6 -22 20 -22 11 0 20 1 20 3 0 1 22 57 49 124 l50 123 -8 102 c-8
95 -8 98 -11 38 l-2 -65 -9 50 c-5 28 -7 62 -4 78 11 61 -15 20 -54 -87z m-81
-288 c0 -19 -51 -171 -63 -185 -5 -7 -16 -13 -24 -13 -13 0 -13 3 -3 15 17 20
0 19 -45 -2 -23 -11 -31 -19 -23 -24 7 -4 18 -3 25 3 8 6 16 8 19 5 3 -3 -12
-15 -35 -26 -40 -21 -86 -27 -94 -13 -2 4 -3 2 -1 -5 2 -9 -67 -35 -183 -68
-29 -8 -29 1 0 129 18 77 28 101 43 107 74 27 314 85 362 88 12 0 22 -5 22
-11z"/>
<path d="M3350 1717 c0 -7 -14 -28 -31 -46 -36 -40 -32 -51 8 -21 16 11 42 22
58 23 32 3 51 37 21 37 -9 0 -16 5 -16 10 0 6 -9 10 -20 10 -11 0 -20 -6 -20
-13z"/>
<path d="M3160 1590 c0 -5 7 -10 16 -10 8 0 12 5 9 10 -3 6 -10 10 -16 10 -5
0 -9 -4 -9 -10z"/>
<path d="M1895 2100 c3 -5 8 -10 11 -10 2 0 4 5 4 10 0 6 -5 10 -11 10 -5 0
-7 -4 -4 -10z"/>
<path d="M1911 1993 c1 -10 5 -29 9 -43 7 -22 8 -21 9 12 1 20 -3 40 -9 43 -5
3 -10 -2 -9 -12z"/>
<path d="M2125 1753 c4 -82 9 -151 11 -154 2 -4 54 -23 116 -44 62 -21 171
-60 242 -86 71 -27 137 -49 147 -49 22 0 26 12 40 130 6 52 13 99 16 104 3 4
0 12 -8 16 -10 7 -10 12 -1 23 10 12 9 16 -9 20 -16 4 -19 2 -15 -10 4 -8 -1
-56 -9 -107 -27 -158 -23 -149 -56 -142 -16 3 -49 15 -73 26 -25 11 -51 20
-58 20 -7 0 -35 11 -63 24 -48 23 -49 24 -20 26 27 1 25 3 -20 19 -41 15 -51
15 -53 4 -4 -17 -13 -16 -60 2 -34 14 -38 19 -34 42 4 19 1 24 -9 21 -8 -3
-13 -13 -13 -22 2 -18 -4 -20 -26 -6 -12 7 -16 36 -18 131 -4 113 -3 121 15
115 55 -16 169 -46 177 -46 25 0 -17 21 -112 54 -57 20 -106 36 -109 36 -3 0
-2 -66 2 -147z"/>
<path d="M2394 1788 c19 -16 43 -25 65 -26 l36 0 -30 10 c-16 5 -41 15 -55 21
-44 20 -45 20 -16 -5z"/>
<path d="M2510 1621 c0 -6 5 -13 10 -16 6 -3 10 1 10 9 0 9 -4 16 -10 16 -5 0
-10 -4 -10 -9z"/>
<path d="M2551 1584 c0 -11 3 -14 6 -6 3 7 2 16 -1 19 -3 4 -6 -2 -5 -13z"/>
<path d="M805 2720 c-3 -5 -1 -10 4 -10 6 0 11 5 11 10 0 6 -2 10 -4 10 -3 0
-8 -4 -11 -10z"/>
<path d="M4530 2450 c0 -5 5 -10 10 -10 6 0 10 5 10 10 0 6 -4 10 -10 10 -5 0
-10 -4 -10 -10z"/>
<path d="M4310 1871 c0 -12 29 -35 36 -28 11 10 -5 37 -21 37 -8 0 -15 -4 -15
-9z"/>
<path d="M4082 1548 c3 -7 13 -15 22 -16 12 -3 17 1 14 10 -3 7 -13 15 -22 16
-12 3 -17 -1 -14 -10z"/>
<path d="M3894 1364 c3 -9 6 -18 6 -20 0 -2 7 -4 15 -4 18 0 19 12 3 28 -17
17 -31 15 -24 -4z"/>
<path d="M1591 1308 c-11 -28 0 -41 30 -36 18 2 23 8 21 23 -7 38 -39 46 -51
13z"/>
<path d="M3571 1211 c-18 -12 3 -51 28 -51 23 0 35 28 20 46 -13 16 -28 17
-48 5z"/>
<path d="M3430 1083 c0 -23 15 -39 24 -25 3 5 -1 18 -9 28 -14 18 -14 18 -15
-3z"/>
<path d="M2061 1036 c-11 -13 -11 -20 -3 -28 8 -8 13 -7 18 5 10 27 0 41 -15
23z"/>
<path d="M3064 976 c-6 -17 2 -36 17 -36 12 0 12 37 -1 45 -6 3 -13 -1 -16 -9z"/>
<path d="M2664 936 c-6 -17 2 -36 17 -36 12 0 12 37 -1 45 -6 3 -13 -1 -16 -9z"/>
</g>
</svg>
